<?xml version="1.0" standalone="no"?>
<!DOCTYPE svg PUBLIC "-//W3C//DTD SVG 20010904//EN"
 "http://www.w3.org/TR/2001/REC-SVG-20010904/DTD/svg10.dtd">
<svg version="1.0" xmlns="http://www.w3.org/2000/svg"
 width="512.000000pt" height="512.000000pt" viewBox="0 0 512.000000 512.000000"
 preserveAspectRatio="xMidYMid meet">
<metadata>
Created by potrace 1.14, written by Peter Selinger 2001-2017
</metadata>
<g transform="translate(0.000000,512.000000) scale(0.100000,-0.100000)"
fill="#000000" stroke="none">
<path d="M3135 4393 c-60 -16 -165 -117 -165 -158 0 -8 -5 -17 -10 -20 -16
-10 -6 -119 13 -149 9 -14 38 -40 63 -58 25 -18 68 -52 95 -75 27 -24 62 -49
77 -57 29 -15 111 -96 98 -96 -5 0 -34 13 -65 29 -31 17 -83 38 -116 47 -33
10 -64 20 -70 24 -15 10 -96 33 -125 36 -37 4 -93 15 -110 21 -8 3 -28 5 -43
4 -15 -2 -33 2 -40 7 -25 21 -432 41 -450 23 -6 -6 -43 -11 -82 -11 -40 0 -75
-3 -79 -7 -4 -4 -22 -9 -39 -10 -28 -1 -66 -8 -152 -28 -11 -3 -42 -9 -70 -15
-47 -9 -107 -30 -147 -51 -10 -5 -23 -9 -29 -9 -15 0 -238 -110 -245 -121 -3
-5 -22 -16 -42 -25 -43 -18 -114 -64 -125 -81 -4 -7 -13 -13 -19 -13 -6 0 -46
-31 -90 -69 l-79 -69 -357 0 c-199 -1 -368 -5 -382 -10 -14 -5 -40 -8 -58 -6
-34 4 -48 -6 -100 -75 -22 -29 -22 -33 -12 -128 25 -245 77 -552 100 -595 6
-10 10 -27 10 -37 0 -11 4 -22 9 -25 5 -3 12 -23 16 -43 4 -21 10 -42 15 -48
4 -5 12 -35 18 -65 11 -58 30 -135 40 -160 3 -8 6 -17 7 -20 13 -50 28 -86 61
-153 13 -27 22 -53 19 -57 -3 -4 15 -48 40 -98 25 -49 45 -93 45 -97 0 -6 58
-93 70 -105 3 -3 10 -12 15 -21 48 -77 116 -153 285 -315 19 -19 39 -34 43
-34 5 0 32 -20 60 -45 29 -25 57 -45 63 -45 6 0 21 -11 34 -25 13 -14 28 -25
34 -25 5 0 26 -11 46 -25 33 -23 109 -56 165 -72 11 -4 31 -13 43 -21 13 -9
34 -17 45 -18 12 -2 51 -10 87 -19 36 -9 108 -21 160 -27 52 -5 106 -15 119
-22 33 -15 742 -16 762 0 8 6 50 14 93 18 44 3 94 10 110 15 17 5 51 14 76 21
25 6 63 15 85 21 22 6 44 14 49 20 6 5 18 9 27 9 23 0 272 121 282 137 4 7 12
13 17 13 12 0 179 118 206 146 20 21 27 21 439 26 310 3 420 7 423 16 2 7 13
12 23 12 27 0 119 40 119 51 0 5 6 9 13 9 35 0 86 91 92 165 1 11 6 28 10 38
4 11 3 17 -5 17 -8 0 -9 10 -5 29 3 17 2 32 -4 36 -6 3 -11 17 -11 29 0 13 -9
35 -21 50 -17 21 -19 29 -9 41 7 8 18 15 24 15 30 0 116 118 116 159 0 12 8
33 17 47 15 24 15 27 0 54 -9 15 -17 42 -17 59 0 65 -95 166 -197 209 -45 19
-70 22 -200 22 -109 0 -154 4 -168 13 -12 10 -15 16 -6 21 7 5 8 13 2 24 -4 9
-11 52 -15 95 -4 44 -11 86 -15 95 -11 22 -28 78 -36 122 -16 79 -50 168 -132
337 -13 26 -14 35 -3 48 7 8 18 15 24 15 7 0 27 15 45 34 28 29 33 41 33 87 1
53 -16 90 -63 143 -8 9 -30 37 -49 62 -19 26 -68 80 -107 121 -40 41 -73 77
-73 80 0 4 -36 44 -80 89 -44 45 -80 86 -80 92 0 6 -9 14 -20 17 -11 3 -20 12
-20 18 0 7 -25 37 -56 67 -84 82 -234 248 -234 259 0 25 -110 56 -155 44z
m-430 -563 c17 -5 59 -13 95 -19 119 -18 181 -33 178 -43 -2 -5 -26 -18 -53
-28 -171 -61 -362 -226 -424 -364 -56 -127 -63 -396 -12 -511 5 -11 24 -51 42
-89 59 -122 210 -249 354 -299 l36 -13 -71 -33 c-82 -37 -163 -114 -262 -246
-85 -112 -108 -165 -108 -246 0 -78 17 -133 64 -203 68 -102 163 -187 261
-232 104 -48 139 -53 348 -54 128 0 186 -3 182 -10 -20 -32 -260 -162 -380
-207 -126 -46 -276 -73 -490 -89 -204 -14 -668 1 -755 25 -19 6 -55 13 -79 16
-48 6 -135 31 -163 46 -10 5 -23 9 -29 9 -33 0 -270 135 -329 188 -10 9 -40
33 -65 52 -74 56 -178 160 -231 230 -27 36 -54 70 -61 75 -11 10 -123 201
-123 211 0 3 -14 35 -31 72 -17 36 -32 71 -33 77 -1 5 -9 25 -18 43 -13 26
-14 32 -3 32 8 0 17 -5 20 -10 9 -14 72 -53 143 -90 55 -28 159 -63 267 -90
67 -17 415 -25 480 -12 28 6 71 15 96 21 45 10 83 24 168 65 39 19 206 172
241 222 8 11 25 34 36 50 94 131 120 301 76 489 -31 130 -143 283 -277 379
-58 42 -226 126 -250 126 -10 0 -31 7 -48 15 -30 13 -76 26 -157 44 -75 16
-76 23 -8 71 35 25 68 47 73 50 6 3 26 17 45 32 63 48 351 178 395 178 8 0 23
4 33 10 22 12 97 29 197 44 44 7 87 15 95 19 38 17 475 14 535 -3z m565 -217
c55 -19 220 -109 299 -163 99 -68 222 -200 280 -300 62 -109 128 -284 138
-371 3 -27 10 -52 14 -55 5 -3 9 -21 9 -40 0 -20 5 -45 11 -56 7 -13 7 -24 1
-30 -5 -5 -101 -14 -213 -18 -112 -5 -282 -14 -377 -20 -191 -11 -385 -1 -408
23 -4 4 -14 7 -23 7 -28 0 -216 98 -251 132 -69 65 -140 205 -140 276 0 15 -5
33 -11 39 -19 19 3 200 32 268 7 17 28 49 46 72 18 23 33 46 33 52 0 6 4 11 8
11 4 0 35 23 67 51 33 27 69 55 81 62 25 15 112 57 139 68 49 20 197 16 265
-8z m-2242 -293 c128 -5 240 -14 250 -19 9 -4 40 -12 67 -16 28 -4 52 -10 55
-14 3 -3 30 -15 60 -25 102 -34 217 -95 289 -152 39 -31 71 -60 71 -65 0 -4
12 -21 26 -38 31 -38 84 -138 84 -161 0 -9 5 -21 11 -27 6 -6 11 -46 12 -89 1
-136 -51 -239 -191 -380 -86 -86 -157 -130 -257 -160 -91 -28 -418 -24 -530 6
-22 6 -51 13 -64 16 -37 8 -148 60 -197 94 -25 16 -48 30 -53 30 -4 0 -41 35
-83 78 -76 78 -134 177 -145 249 -3 18 -10 33 -14 33 -5 0 -9 9 -9 20 0 10 -5
29 -10 42 -14 31 -62 356 -76 509 l-6 56 32 7 c18 3 83 6 144 7 61 1 138 5
171 9 33 4 76 6 95 4 19 -3 140 -9 268 -14z"/>
<path d="M3529 3203 c-66 -69 -73 -93 -72 -233 1 -164 11 -187 106 -256 36
-26 57 -34 80 -32 29 3 36 11 72 78 l40 75 0 130 c0 126 -1 132 -30 182 -16
29 -35 53 -41 53 -6 0 -19 9 -29 20 -12 13 -31 20 -54 20 -30 0 -44 -8 -72
-37z"/>
</g>
</svg>
